<svg width="122" height="34" viewBox="0 0 122 34" fill="none" xmlns="http://www.w3.org/2000/svg">
<path d="M8.964 33.108L5.94 33C4.068 33 2.376 33.096 0.864 33.288C0.744 33.144 0.684 32.94 0.684 32.676L0.72 32.388C1.704 32.172 2.364 31.848 2.7 31.416C3.06 30.96 3.324 30.228 3.492 29.22C3.684 28.188 3.78 24.42 3.78 17.916V8.7C3.78 6.516 3.528 5.184 3.024 4.704C2.76 4.44 2.424 4.284 2.016 4.236L0.72 4.092C0.648 3.972 0.612 3.828 0.612 3.66C0.612 3.468 0.648 3.312 0.72 3.192C2.424 2.88 3.744 2.496 4.68 2.04C5.304 1.728 6.012 1.308 6.804 0.779999C7.044 0.779999 7.236 0.899998 7.38 1.14C6.9 4.14 6.66 9.768 6.66 18.024C9.708 16.344 12.144 15.228 13.968 14.676C15.528 14.676 16.704 15.252 17.496 16.404C18.288 17.556 18.684 19.104 18.684 21.048L18.612 25.656C18.612 29.76 18.792 31.848 19.152 31.92C19.512 31.968 20.22 31.992 21.276 31.992C21.372 32.16 21.42 32.316 21.42 32.46C21.42 32.604 21.372 32.82 21.276 33.108L17.964 33C15.972 33 14.388 33.096 13.212 33.288C13.068 33.096 12.996 32.892 12.996 32.676L13.068 32.388C14.052 32.172 14.712 31.848 15.048 31.416C15.384 30.984 15.576 30.468 15.624 29.868C15.696 29.268 15.732 28.056 15.732 26.232C15.732 24.408 15.72 23.28 15.696 22.848C15.696 22.392 15.66 21.816 15.588 21.12C15.54 20.4 15.432 19.86 15.264 19.5C15.12 19.116 14.928 18.72 14.688 18.312C14.208 17.568 13.356 17.196 12.132 17.196C10.908 17.196 9.552 17.688 8.064 18.672C7.848 18.792 7.572 18.972 7.236 19.212C6.9 19.428 6.708 19.548 6.66 19.572C6.636 20.772 6.624 22.044 6.624 23.388C6.624 28.932 6.768 31.752 7.056 31.848C7.368 31.944 8.004 31.992 8.964 31.992C9.036 32.16 9.072 32.352 9.072 32.568C9.072 32.784 9.036 32.964 8.964 33.108ZM36.72 19.896L36.612 28.68C36.612 30.432 37.176 31.308 38.304 31.308L39.6 31.272C39.696 31.392 39.744 31.584 39.744 31.848L39.672 32.244C37.824 32.58 36.504 33.072 35.712 33.72C35.184 33.576 34.728 33.252 34.344 32.748C33.984 32.22 33.78 31.668 33.732 31.092C31.812 32.268 29.904 33.144 28.008 33.72C27.192 33.72 26.352 33.264 25.488 32.352C24.624 31.416 24.192 30.252 24.192 28.86C24.192 28.164 24.348 27.54 24.66 26.988C24.972 26.412 25.344 26.016 25.776 25.8C27.552 24.912 30.192 24.132 33.696 23.46V20.04C33.696 18.72 33.48 17.736 33.048 17.088C32.64 16.44 32.136 16.116 31.536 16.116C30.96 16.116 30.336 16.224 29.664 16.44C28.992 16.632 28.512 17.016 28.224 17.592C27.96 18.168 27.828 18.984 27.828 20.04C27.828 20.136 27.66 20.244 27.324 20.364C27.012 20.46 26.604 20.508 26.1 20.508C25.62 20.508 25.284 20.4 25.092 20.184C24.924 19.944 24.84 19.596 24.84 19.14C24.84 18.276 25.464 17.34 26.712 16.332C27 16.14 27.84 15.816 29.232 15.36C30.648 14.904 31.464 14.676 31.68 14.676C33.408 14.676 34.68 15.18 35.496 16.188C36.312 17.196 36.72 18.432 36.72 19.896ZM27.396 28.68C27.396 29.256 27.624 29.88 28.08 30.552C28.536 31.224 29.052 31.56 29.628 31.56C30.228 31.56 30.912 31.356 31.68 30.948C32.448 30.54 33.084 30.108 33.588 29.652C33.66 28.236 33.696 26.604 33.696 24.756C31.68 25.02 29.904 25.596 28.368 26.484C27.72 26.796 27.396 27.528 27.396 28.68ZM42.6659 16.836L41.2619 16.872C41.1419 16.752 41.0819 16.572 41.0819 16.332L41.1539 15.9C42.7859 15.684 44.1179 15.348 45.1499 14.892C45.4859 14.748 45.6899 14.676 45.7619 14.676C46.0259 14.676 46.3259 15.156 46.6619 16.116C46.9979 17.052 47.2019 17.988 47.2739 18.924C49.0739 17.052 50.7059 15.636 52.1699 14.676C53.1299 14.676 53.9219 14.964 54.5459 15.54C55.1699 16.092 55.4819 16.788 55.4819 17.628C55.4819 18.588 54.6299 19.068 52.9259 19.068C52.5659 17.796 51.9539 17.16 51.0899 17.16C50.5139 17.16 49.3139 18.156 47.4899 20.148C47.3459 21.972 47.2739 24.876 47.2739 28.86C47.2739 30.852 47.4299 31.86 47.7419 31.884C48.2939 31.956 49.2659 31.992 50.6579 31.992C50.7299 32.16 50.7659 32.352 50.7659 32.568C50.7659 32.784 50.7299 32.964 50.6579 33.108L46.6259 33C44.6579 33 42.9179 33.096 41.4059 33.288C41.2859 33.144 41.2259 32.94 41.2259 32.676L41.2619 32.388C42.5339 32.148 43.3499 31.776 43.7099 31.272C43.9739 30.888 44.1659 30.276 44.2859 29.436C44.4059 28.572 44.4659 26.892 44.4659 24.396C44.4659 21.9 44.4539 20.52 44.4299 20.256C44.4299 19.992 44.4179 19.644 44.3939 19.212C44.3699 18.78 44.3219 18.456 44.2499 18.24C44.1779 18.024 44.0699 17.784 43.9259 17.52C43.6859 17.064 43.2659 16.836 42.6659 16.836ZM58.7886 15.252L61.8126 15.144C61.8846 15.264 61.9206 15.444 61.9206 15.684L61.8126 16.26C61.0686 16.26 60.5406 16.284 60.2286 16.332C60.4446 18.036 61.0086 19.896 61.9206 21.912L65.0886 28.86L67.5726 22.2C68.4366 19.872 68.9766 17.952 69.1926 16.44C68.4726 16.32 67.7046 16.26 66.8886 16.26C66.8406 16.092 66.8166 15.9 66.8166 15.684C66.8166 15.444 66.8406 15.264 66.8886 15.144C67.8486 15.216 68.8926 15.252 70.0206 15.252C71.1726 15.252 72.1806 15.18 73.0446 15.036C73.2126 15.3 73.2966 15.612 73.2966 15.972C72.6966 16.236 72.2646 16.5 72.0006 16.764C71.1846 17.58 70.4286 18.864 69.7326 20.616L64.4046 33.72H63.8646L58.5366 21.192C57.5526 18.816 56.7726 17.316 56.1966 16.692C55.8846 16.308 55.4046 16.02 54.7566 15.828C54.7326 15.756 54.7206 15.624 54.7206 15.432C54.7206 15.24 54.7926 15.06 54.9366 14.892C56.5926 15.132 57.8766 15.252 58.7886 15.252ZM83.6086 31.128C85.5766 31.128 87.3166 30.6 88.8286 29.544C89.1646 29.664 89.3566 29.916 89.4046 30.3L85.5166 33.036C84.9406 33.492 83.6566 33.72 81.6646 33.72C79.6726 33.72 77.9806 32.832 76.5886 31.056C75.1966 29.256 74.5006 26.988 74.5006 24.252C74.5006 21.516 75.2566 19.356 76.7686 17.772C78.2806 16.188 80.0806 15.156 82.1686 14.676C83.9926 14.676 85.6006 15.288 86.9926 16.512C87.8326 17.232 88.4206 18.168 88.7566 19.32C88.8286 19.608 89.1646 19.764 89.7646 19.788C89.9086 19.956 89.9806 20.136 89.9806 20.328C89.9806 20.496 89.9566 20.676 89.9086 20.868C85.6846 21.852 81.5326 22.536 77.4526 22.92C77.4526 25.992 78.3046 28.296 80.0086 29.832C80.9686 30.696 82.1686 31.128 83.6086 31.128ZM85.8766 20.148C85.9966 20.076 86.0566 19.992 86.0566 19.896C86.0566 19.776 85.9006 19.44 85.5886 18.888C85.3006 18.312 84.7846 17.712 84.0406 17.088C83.2966 16.44 82.5166 16.116 81.7006 16.116C80.8846 16.116 80.2846 16.236 79.9006 16.476C78.5566 17.388 77.7886 19.044 77.5966 21.444C78.8926 21.444 80.3686 21.312 82.0246 21.048C83.6806 20.76 84.9646 20.46 85.8766 20.148ZM102.89 16.908C102.17 16.284 101.246 15.972 100.118 15.972C97.7903 15.972 96.6263 16.908 96.6263 18.78C96.6263 19.38 96.8423 19.956 97.2743 20.508C97.7303 21.036 98.2823 21.456 98.9303 21.768L101.738 23.1C104.474 24.42 105.842 26.184 105.842 28.392C105.842 30.024 105.194 31.32 103.898 32.28C102.602 33.24 101.066 33.72 99.2903 33.72C98.3543 33.72 97.3703 33.624 96.3383 33.432C95.3303 33.264 94.6103 33.084 94.1783 32.892C94.1063 31.812 93.8903 30.312 93.5303 28.392C93.7943 28.224 94.0103 28.14 94.1783 28.14C94.3703 28.14 94.5023 28.164 94.5743 28.212C95.0543 29.652 95.4743 30.576 95.8343 30.984C96.0983 31.248 96.5663 31.536 97.2383 31.848C97.9103 32.16 98.7023 32.316 99.6143 32.316C100.55 32.316 101.354 32.064 102.026 31.56C102.698 31.056 103.034 30.3 103.034 29.292C103.034 28.62 102.902 28.116 102.638 27.78C102.374 27.444 102.146 27.192 101.954 27.024C101.786 26.832 101.582 26.664 101.342 26.52C101.126 26.376 100.934 26.268 100.766 26.196C100.622 26.1 100.466 26.016 100.298 25.944C100.154 25.848 100.07 25.8 100.046 25.8L97.3463 24.504C95.0183 23.4 93.8543 21.804 93.8543 19.716C93.8543 18.012 94.5023 16.752 95.7983 15.936C97.0943 15.096 98.5583 14.676 100.19 14.676C100.982 14.676 101.87 14.784 102.854 15C103.862 15.192 104.618 15.396 105.122 15.612C104.954 16.188 104.762 17.532 104.546 19.644C104.426 19.74 104.258 19.788 104.042 19.788C103.85 19.788 103.658 19.764 103.466 19.716C103.274 18.516 103.082 17.58 102.89 16.908ZM114.802 25.26C114.802 29.244 115.486 31.236 116.854 31.236C117.862 31.236 119.17 30.9 120.778 30.228C121.138 30.348 121.318 30.684 121.318 31.236C119.566 32.172 117.55 33 115.27 33.72C114.142 33.72 113.278 33.144 112.678 31.992C112.102 30.84 111.814 29.292 111.814 27.348V18.996C111.814 17.58 111.73 16.872 111.562 16.872L108.898 16.908C108.73 16.86 108.646 16.74 108.646 16.548C108.766 16.308 108.874 15.876 108.97 15.252H111.526C111.718 15.252 111.814 14.832 111.814 13.992L111.778 10.932C112.666 10.572 113.578 9.828 114.514 8.7C114.802 8.7 115.018 8.772 115.162 8.916C114.946 11.436 114.838 13.548 114.838 15.252C116.59 15.252 118.318 15.168 120.022 15C120.19 15.096 120.274 15.24 120.274 15.432C120.13 15.672 120.01 16.116 119.914 16.764L114.802 16.836V25.26Z" fill="#EFE3C8" fill-opacity="0.5" style="fill:#EFE3C8;fill:color(display-p3 0.9373 0.8902 0.7843);fill-opacity:0.5;"/>
</svg>
